<svg viewBox="62.521 63.146 17.095 17.094" xmlns="http://www.w3.org/2000/svg" width="100%" height="100%"><path fill="#D5B577" d="M63.938 68.693v-4.121h14.229v14.23h-3.673v1.351h3.847c.648 0 1.177-.527 1.177-1.176V64.399c0-.648-.527-1.177-1.177-1.177H63.765a1.18 1.18 0 0 0-1.178 1.177v4.294h1.351z"></path><path fill="#D5B577" d="M71.59 70.927h-8.436a.568.568 0 0 0-.566.567v8.089a.57.57 0 0 0 .566.568h8.436a.568.568 0 0 0 .566-.568v-8.089a.568.568 0 0 0-.566-.567zm-.817 8.014H63.97v-6.803h6.803v6.803z"></path></svg>