<svg viewBox="62.24 63.24 17.125 17.109" xmlns="http://www.w3.org/2000/svg" width="100%" height="100%"><path fill="#D5B577" d="M78.562 63.917a.758.758 0 0 0-.509-.211h-3.39a.548.548 0 0 0-.546.548v.187c0 .302.245.548.546.548h1.966l-6.381 6.371a.55.55 0 0 0 .001.772l.138.136a.539.539 0 0 0 .384.155.56.56 0 0 0 .387-.159l6.377-6.371v1.752c0 .302.246.547.548.547h.187a.548.548 0 0 0 .548-.547V64.47a.81.81 0 0 0-.256-.553z"></path><path fill="#D5B577" d="M77.933 71.554v7.365h-14.23v-14.23h7.365v-1.351h-7.539c-.648 0-1.176.527-1.176 1.177v14.576a1.18 1.18 0 0 0 1.176 1.179h14.576a1.18 1.18 0 0 0 1.177-1.179v-7.537h-1.349z"></path></svg>