<svg viewBox="0 0 16.508 16.668" xmlns="http://www.w3.org/2000/svg" width="100%" height="100%"><path fill="#D5B577" d="M15.758 1.627a.75.75 0 0 0-.75.75v.979A8.31 8.31 0 0 0 8.333 0C3.738 0-.001 3.739-.001 8.334c0 4.596 3.739 8.334 8.334 8.334a8.332 8.332 0 0 0 7.651-5.027.75.75 0 0 0-1.377-.595 6.831 6.831 0 0 1-6.274 4.123 6.841 6.841 0 0 1-6.834-6.834 6.842 6.842 0 0 1 6.834-6.834 6.81 6.81 0 0 1 5.674 3.044H12.8a.75.75 0 0 0 0 1.5h2.958a.75.75 0 0 0 .75-.75V2.377a.75.75 0 0 0-.75-.75z"></path></svg>